# xmcd
#
# Track frame offsets:
#	150
#	20055
#	37072
#	46255
#	57144
#	67795
#	77597
#	90810
#	102011
#	113269
#	125942
#	134776
#	143223
#	154414
#	170915
#	183863
#	195977
#
# Disc length: 2715 seconds
# Revision: 0
# Processed by: cddbd v1.5.2PL0 Copyright (c) Steve Scherf et al.
# Submitted via: dBpowerAMP V12.0
#
DISCID=e20a9911
DTITLE=Various Artist - The Beatles Songbook
DYEAR=2003
DGENRE=Rock/Pop
TTITLE0=Joe Longthorne - The Long And Winding Road
TTITLE1=Bobbie Gentry - Fool On The Hill
TTITLE2=Billy J. Kramer and The Dakotas - I Call Your Name
TTITLE3=Vikki Carr - Nowhere Man
TTITLE4=Cilla Black - Step Inside Love
TTITLE5=The Fourmost - I'm In Love
TTITLE6=Lulu - Day Tripper
TTITLE7=Shirley Abicair - This Girl
TTITLE8=Peter and Gordon - Nobody I Know
TTITLE9=Sacha Distel - We Can Work It Out
TTITLE10=The Tremeloes - Good Day Sunshine
TTITLE11=Brazilian Tropical Orchestra - For No One
TTITLE12=Justin Hayward - Blackbird
TTITLE13=Leo Sayer - Let It Be
TTITLE14=Vince Hill - Here There And Everywhere
TTITLE15=Bobby McFerrin - Drive My Car
TTITLE16=Joe Cocker - I'll Cry Instead
EXTD=
EXTT0=
EXTT1=
EXTT2=
EXTT3=
EXTT4=
EXTT5=
EXTT6=
EXTT7=
EXTT8=
EXTT9=
EXTT10=
EXTT11=
EXTT12=
EXTT13=
EXTT14=
EXTT15=
EXTT16=
PLAYORDER=
